<?xml version="1.0" encoding="UTF-8" standalone="no"?>
<!-- Generator: Adobe Illustrator 17.0.0, SVG Export Plug-In . SVG Version: 6.00 Build 0)  -->

<svg
   xmlns:dc="http://purl.org/dc/elements/1.1/"
   xmlns:cc="http://creativecommons.org/ns#"
   xmlns:rdf="http://www.w3.org/1999/02/22-rdf-syntax-ns#"
   xmlns:svg="http://www.w3.org/2000/svg"
   xmlns="http://www.w3.org/2000/svg"
   xmlns:xlink="http://www.w3.org/1999/xlink"
   xmlns:sodipodi="http://sodipodi.sourceforge.net/DTD/sodipodi-0.dtd"
   xmlns:inkscape="http://www.inkscape.org/namespaces/inkscape"
   version="1.1"
   id="Слой_1"
   x="0px"
   y="0px"
   width="90px"
   height="90px"
   viewBox="0 0 90 90"
   enable-background="new 0 0 90 90"
   xml:space="preserve"
   inkscape:version="0.48.5 r10040"
   sodipodi:docname="logger.svg"
   inkscape:export-filename="D:\Downloads\logger.png"
   inkscape:export-xdpi="256"
   inkscape:export-ydpi="256"><metadata
     id="metadata23"><rdf:RDF><cc:Work
         rdf:about=""><dc:format>image/svg+xml</dc:format><dc:type
           rdf:resource="http://purl.org/dc/dcmitype/StillImage" /><dc:title></dc:title></cc:Work></rdf:RDF></metadata><defs
     id="defs21" /><sodipodi:namedview
     pagecolor="#ffffff"
     bordercolor="#666666"
     borderopacity="1"
     objecttolerance="10"
     gridtolerance="10"
     guidetolerance="10"
     inkscape:pageopacity="0"
     inkscape:pageshadow="2"
     inkscape:window-width="1920"
     inkscape:window-height="1017"
     id="namedview19"
     showgrid="false"
     inkscape:zoom="1.8541911"
     inkscape:cx="86.262099"
     inkscape:cy="-36.598207"
     inkscape:window-x="-8"
     inkscape:window-y="-8"
     inkscape:window-maximized="1"
     inkscape:current-layer="g3798" /><path
     fill="#31B7DA"
     d="M90,68.472c0,2.761-1.754,5.881-5,7.117s-31.5,12.39-35.333,13.528s-5.343,1.217-8.501,0  C38.008,87.9,7.701,76.954,5.057,75.588s-5-4.355-5-7.117V5c0-2.761,2.239-5,5-5H85c2.761,0,5,2.239,5,5V68.472z"
     id="path3" /><g
     id="g11"><defs
       id="defs13"><rect
         id="SVGID_1_"
         x="0"
         y="0"
         width="90"
         height="90" /></defs><clipPath
       id="SVGID_2_"><use
         xlink:href="#SVGID_1_"
         overflow="visible"
         id="use17" /></clipPath></g><g
     style="display:inline"
     inkscape:label="Layer copy"
     id="g3798"
     inkscape:groupmode="layer"><g
       id="g3862"
       transform="matrix(1.3428238,0,0,1.3428238,-15.427071,-0.3197888)"><path
         inkscape:connector-curvature="0"
         id="path3800"
         d="m 18.124341,30.06081 c 5.1338,-9.639954 15.285007,-16.202278 26.968927,-16.202278 11.544041,0 21.591849,6.406138 26.782391,15.857382"
         style="fill:none;stroke:#ffffff;stroke-width:6.2216897;stroke-linecap:round;stroke-linejoin:bevel;stroke-miterlimit:4;stroke-opacity:1;stroke-dasharray:none" /><path
         inkscape:connector-curvature="0"
         id="path3802"
         d="m 26.270959,39.066409 c 3.963117,-6.203127 10.909495,-10.316013 18.81649,-10.316013 7.791935,0 14.651008,3.994059 18.641592,10.046551"
         style="fill:none;stroke:#ffffff;stroke-width:6.2216897;stroke-linecap:round;stroke-linejoin:bevel;stroke-miterlimit:4;stroke-opacity:1;stroke-dasharray:none;display:inline" /><path
         inkscape:connector-curvature="0"
         id="path3804"
         d="m 34.013978,47.683107 c 2.778282,-2.884346 6.680224,-4.678792 11.001281,-4.678792 4.305259,0 8.194462,1.781349 10.970763,4.647201"
         style="fill:none;stroke:#ffffff;stroke-width:6.2216897;stroke-linecap:round;stroke-linejoin:bevel;stroke-miterlimit:4;stroke-opacity:1;stroke-dasharray:none;display:inline" /></g></g></svg>